<svg width="17" height="16" viewBox="0 0 17 16" fill="none" xmlns="http://www.w3.org/2000/svg">
<path d="M12.3373 4.85213C12.8758 4.85213 13.3125 4.42232 13.3125 3.89213C13.3125 3.36194 12.8758 2.93213 12.3373 2.93213C11.7987 2.93213 11.3621 3.36194 11.3621 3.89213C11.3621 4.42232 11.7987 4.85213 12.3373 4.85213Z" fill="black"/>
<path fill-rule="evenodd" clip-rule="evenodd" d="M4.06299 8C4.06299 10.206 5.88538 12 8.1263 12C10.3672 12 12.1896 10.206 12.1896 8C12.1896 5.794 10.3672 4 8.1263 4C5.88538 4 4.06299 5.794 4.06299 8ZM6.09495 8C6.09495 6.897 7.00615 6 8.12661 6C9.24707 6 10.1583 6.897 10.1583 8C10.1583 9.103 9.24707 10 8.12661 10C7.00615 10 6.09495 9.103 6.09495 8Z" fill="black"/>
<path fill-rule="evenodd" clip-rule="evenodd" d="M4.06331 16H12.1899C14.2785 16 16.2533 14.056 16.2533 12V4C16.2533 1.944 14.2785 0 12.1899 0H4.06331C1.97477 0 0 1.944 0 4V12C0 14.056 1.97477 16 4.06331 16ZM2.03155 4C2.03155 3.065 3.11341 2 4.06321 2H12.1898C13.1396 2 14.2215 3.065 14.2215 4V12C14.2215 12.935 13.1396 14 12.1898 14H4.06321C3.09512 14 2.03155 12.953 2.03155 12V4Z" fill="black"/>
</svg>
