<svg width="17" height="17" viewBox="0 0 17 17" fill="none" xmlns="http://www.w3.org/2000/svg">
<path d="M15.7451 0H1.25493C0.922102 0 0.602906 0.132216 0.367561 0.367561C0.132216 0.602906 0 0.922102 0 1.25493V15.7451C0 16.0779 0.132216 16.3971 0.367561 16.6324C0.602906 16.8678 0.922102 17 1.25493 17H15.7451C16.0779 17 16.3971 16.8678 16.6324 16.6324C16.8678 16.3971 17 16.0779 17 15.7451V1.25493C17 0.922102 16.8678 0.602906 16.6324 0.367561C16.3971 0.132216 16.0779 0 15.7451 0ZM5.06694 14.4819H2.51104V6.36319H5.06694V14.4819ZM3.78722 5.23813C3.4973 5.23649 3.21436 5.14901 2.9741 4.98673C2.73385 4.82444 2.54705 4.59463 2.43729 4.32628C2.32752 4.05793 2.29971 3.76309 2.35736 3.47895C2.415 3.19481 2.55553 2.93411 2.76119 2.72976C2.96686 2.52541 3.22845 2.38656 3.51296 2.33074C3.79746 2.27492 4.09212 2.30463 4.35976 2.41611C4.62739 2.5276 4.85601 2.71587 5.01675 2.95716C5.17749 3.19845 5.26315 3.48195 5.26292 3.77188C5.26565 3.96598 5.22928 4.15865 5.15597 4.3384C5.08265 4.51815 4.9739 4.6813 4.8362 4.81813C4.69849 4.95496 4.53464 5.06266 4.35443 5.13481C4.17421 5.20697 3.98131 5.24211 3.78722 5.23813ZM14.4878 14.489H11.9331V10.0536C11.9331 8.74556 11.377 8.34181 10.6592 8.34181C9.90132 8.34181 9.15757 8.91319 9.15757 10.0867V14.489H6.60167V6.3691H9.05958V7.49417H9.09264C9.33938 6.99479 10.2035 6.14125 11.5222 6.14125C12.9483 6.14125 14.489 6.98771 14.489 9.46688L14.4878 14.489Z" fill="black"/>
</svg>
