<svg width="1080" height="720" viewBox="0 0 1080 720" fill="none" xmlns="http://www.w3.org/2000/svg">
<rect width="1080" height="720" fill="white"/>
<path d="M336.148 407.457C333.992 407.457 331.836 406.647 330.169 405.027C326.779 401.725 326.714 396.301 330.016 392.911C338.514 384.189 343.198 372.683 343.198 360.502C343.198 355.771 347.035 351.935 351.766 351.935C356.497 351.935 360.334 355.771 360.334 360.502C360.334 377.177 353.927 392.934 342.29 404.873C340.604 406.591 338.374 407.457 336.148 407.457Z" fill="url(#paint0_linear_108_52)"/>
<path d="M296.894 424.066C279.912 424.066 263.949 417.454 251.945 405.45C239.936 393.441 233.324 377.479 233.324 360.502C233.324 343.525 239.936 327.558 251.94 315.554C263.949 303.546 279.912 296.934 296.894 296.934C301.625 296.934 305.462 300.77 305.462 305.501C305.462 310.232 301.625 314.069 296.894 314.069C271.288 314.069 250.46 334.902 250.46 360.502C250.46 386.103 271.293 406.936 296.894 406.936C301.625 406.936 305.462 410.772 305.462 415.503C305.462 420.234 301.625 424.066 296.894 424.066Z" fill="url(#paint1_linear_108_52)"/>
<path d="M296.894 326.678C278.212 326.678 263.069 341.821 263.069 360.502C263.069 379.184 278.212 394.326 296.894 394.326C315.576 394.326 330.719 379.184 330.719 360.502C330.719 341.821 315.571 326.678 296.894 326.678ZM304.083 362.179C304.149 362.258 304.214 362.337 304.288 362.412L309.993 368.116C311.008 369.131 311.008 370.774 309.993 371.789L308.186 373.596C307.171 374.611 305.527 374.611 304.512 373.596L298.808 367.892C298.733 367.817 298.659 367.752 298.575 367.687C297.592 366.905 296.195 366.905 295.218 367.687C295.138 367.752 295.059 367.817 294.985 367.892L289.281 373.596C288.265 374.611 286.622 374.611 285.607 373.596L283.8 371.789C282.785 370.774 282.785 369.131 283.8 368.116L289.504 362.412C289.579 362.337 289.644 362.263 289.709 362.179C290.491 361.196 290.491 359.799 289.709 358.821C289.644 358.742 289.579 358.663 289.504 358.589L283.8 352.884C282.785 351.869 282.785 350.226 283.8 349.211L285.607 347.404C286.622 346.389 288.265 346.389 289.281 347.404L294.985 353.108C295.059 353.183 295.134 353.248 295.218 353.313C296.2 354.095 297.597 354.095 298.575 353.313C298.654 353.248 298.733 353.183 298.808 353.108L304.512 347.404C305.527 346.389 307.171 346.389 308.186 347.404L309.993 349.211C311.008 350.226 311.008 351.869 309.993 352.884L304.288 358.589C304.214 358.663 304.149 358.737 304.083 358.821C303.301 359.804 303.301 361.201 304.083 362.179Z" fill="url(#paint2_linear_108_52)"/>
<path d="M417.304 376.993C418.202 377.249 419.357 377.442 420.768 377.57C422.179 377.634 423.525 377.666 424.809 377.666C427.374 377.666 429.491 377.153 431.158 376.127C432.89 375.036 433.756 373.369 433.756 371.124C433.756 369.008 433.05 367.501 431.639 366.602C430.229 365.704 428.08 365.256 425.193 365.256H417.304V376.993ZM417.304 353.518H424.327C427.085 353.518 429.074 353.005 430.293 351.979C431.576 350.953 432.217 349.445 432.217 347.457C432.217 345.725 431.479 344.346 430.004 343.32C428.593 342.294 426.444 341.781 423.558 341.781C422.596 341.781 421.473 341.813 420.19 341.877C418.972 341.941 418.01 342.037 417.304 342.165V353.518ZM423.558 390.558C422.467 390.558 421.185 390.526 419.709 390.462C418.234 390.398 416.694 390.27 415.091 390.077C413.552 389.885 412.012 389.629 410.473 389.308C408.934 389.051 407.523 388.666 406.24 388.153C402.712 386.806 400.948 384.465 400.948 381.13V336.201C400.948 334.854 401.301 333.827 402.007 333.122C402.776 332.352 403.802 331.743 405.085 331.294C407.266 330.524 409.992 329.979 413.263 329.658C416.534 329.274 419.902 329.081 423.365 329.081C431.576 329.081 437.893 330.46 442.319 333.218C446.745 335.976 448.957 340.241 448.957 346.014C448.957 348.9 448.124 351.401 446.456 353.518C444.788 355.571 442.544 357.078 439.721 358.04C442.928 358.938 445.59 360.574 447.707 362.946C449.887 365.319 450.978 368.302 450.978 371.894C450.978 378.244 448.605 382.958 443.858 386.037C439.176 389.051 432.409 390.558 423.558 390.558ZM483.71 390.558C479.926 390.558 476.398 390.045 473.127 389.019C469.92 387.928 467.097 386.325 464.66 384.209C462.287 382.092 460.395 379.43 458.984 376.223C457.637 373.016 456.964 369.264 456.964 364.967C456.964 360.734 457.637 357.11 458.984 354.095C460.395 351.017 462.223 348.515 464.468 346.591C466.712 344.603 469.279 343.16 472.165 342.262C475.051 341.3 478.001 340.819 481.016 340.819C484.415 340.819 487.494 341.332 490.252 342.358C493.074 343.384 495.479 344.795 497.468 346.591C499.52 348.387 501.092 350.536 502.183 353.037C503.337 355.538 503.914 358.265 503.914 361.215C503.914 363.395 503.305 365.063 502.086 366.218C500.867 367.372 499.168 368.109 496.987 368.43L473.223 371.99C473.928 374.107 475.371 375.71 477.553 376.801C479.733 377.827 482.235 378.34 485.057 378.34C487.686 378.34 490.156 378.019 492.465 377.378C494.838 376.672 496.762 375.871 498.238 374.973C499.264 375.614 500.13 376.512 500.836 377.666C501.541 378.821 501.894 380.039 501.894 381.322C501.894 384.209 500.547 386.357 497.853 387.768C495.8 388.859 493.491 389.596 490.926 389.981C488.36 390.366 485.955 390.558 483.71 390.558ZM481.016 352.748C479.477 352.748 478.13 353.005 476.975 353.518C475.885 354.031 474.987 354.705 474.281 355.538C473.576 356.308 473.031 357.206 472.646 358.232C472.325 359.194 472.133 360.189 472.069 361.215L488.521 358.521C488.328 357.238 487.622 355.955 486.404 354.673C485.185 353.39 483.389 352.748 481.016 352.748ZM541.42 359.387C541.42 357.399 540.843 355.955 539.688 355.057C538.598 354.095 537.091 353.614 535.166 353.614C533.883 353.614 532.6 353.775 531.318 354.095C530.099 354.416 529.04 354.897 528.143 355.538V388.923C527.501 389.115 526.475 389.308 525.064 389.5C523.717 389.692 522.306 389.789 520.831 389.789C519.419 389.789 518.137 389.692 516.983 389.5C515.892 389.308 514.962 388.923 514.192 388.346C513.423 387.768 512.813 386.999 512.364 386.037C511.98 385.011 511.787 383.695 511.787 382.092V353.229C511.787 351.498 512.14 350.087 512.845 348.996C513.615 347.906 514.641 346.912 515.924 346.014C518.105 344.474 520.831 343.224 524.102 342.262C527.437 341.3 531.126 340.819 535.166 340.819C542.414 340.819 547.994 342.422 551.907 345.629C555.819 348.772 557.776 353.165 557.776 358.81V388.923C557.134 389.115 556.108 389.308 554.697 389.5C553.35 389.692 551.939 389.789 550.464 389.789C549.052 389.789 547.77 389.692 546.615 389.5C545.525 389.308 544.595 388.923 543.825 388.346C543.056 387.768 542.446 386.999 541.997 386.037C541.613 385.011 541.42 383.695 541.42 382.092V359.387ZM592.605 390.558C588.82 390.558 585.293 390.045 582.022 389.019C578.814 387.928 575.992 386.325 573.555 384.209C571.182 382.092 569.29 379.43 567.879 376.223C566.532 373.016 565.858 369.264 565.858 364.967C565.858 360.734 566.532 357.11 567.879 354.095C569.29 351.017 571.118 348.515 573.363 346.591C575.607 344.603 578.173 343.16 581.06 342.262C583.946 341.3 586.896 340.819 589.911 340.819C593.31 340.819 596.389 341.332 599.147 342.358C601.969 343.384 604.374 344.795 606.363 346.591C608.415 348.387 609.987 350.536 611.077 353.037C612.232 355.538 612.809 358.265 612.809 361.215C612.809 363.395 612.2 365.063 610.981 366.218C609.762 367.372 608.062 368.109 605.882 368.43L582.118 371.99C582.823 374.107 584.266 375.71 586.447 376.801C588.628 377.827 591.129 378.34 593.952 378.34C596.581 378.34 599.051 378.019 601.36 377.378C603.733 376.672 605.657 375.871 607.133 374.973C608.159 375.614 609.025 376.512 609.73 377.666C610.436 378.821 610.789 380.039 610.789 381.322C610.789 384.209 609.442 386.357 606.748 387.768C604.695 388.859 602.386 389.596 599.821 389.981C597.255 390.366 594.849 390.558 592.605 390.558ZM589.911 352.748C588.372 352.748 587.025 353.005 585.87 353.518C584.78 354.031 583.881 354.705 583.176 355.538C582.47 356.308 581.925 357.206 581.541 358.232C581.22 359.194 581.027 360.189 580.963 361.215L597.415 358.521C597.223 357.238 596.517 355.955 595.299 354.673C594.08 353.39 592.284 352.748 589.911 352.748ZM637.038 388.923C636.396 389.115 635.37 389.308 633.959 389.5C632.612 389.692 631.201 389.789 629.726 389.789C628.314 389.789 627.032 389.692 625.877 389.5C624.787 389.308 623.857 388.923 623.087 388.346C622.318 387.768 621.708 386.999 621.259 386.037C620.874 385.011 620.682 383.695 620.682 382.092V353.229C620.682 351.754 620.938 350.504 621.452 349.477C622.029 348.387 622.83 347.425 623.857 346.591C624.883 345.757 626.134 345.02 627.609 344.378C629.148 343.673 630.784 343.063 632.516 342.55C634.248 342.037 636.043 341.652 637.904 341.396C639.763 341.075 641.624 340.915 643.484 340.915C646.563 340.915 649 341.524 650.796 342.743C652.592 343.897 653.49 345.821 653.49 348.515C653.49 349.413 653.361 350.311 653.105 351.209C652.848 352.043 652.528 352.813 652.143 353.518C650.796 353.518 649.417 353.582 648.006 353.71C646.594 353.839 645.216 354.031 643.869 354.288C642.522 354.544 641.239 354.833 640.02 355.154C638.866 355.41 637.871 355.731 637.038 356.116V388.923ZM659.852 329.274C659.852 326.836 660.654 324.784 662.257 323.116C663.925 321.449 666.106 320.615 668.8 320.615C671.494 320.615 673.643 321.449 675.246 323.116C676.914 324.784 677.747 326.836 677.747 329.274C677.747 331.711 676.914 333.763 675.246 335.431C673.643 337.098 671.494 337.932 668.8 337.932C666.106 337.932 663.925 337.098 662.257 335.431C660.654 333.763 659.852 331.711 659.852 329.274ZM676.978 388.923C676.273 389.051 675.214 389.211 673.803 389.404C672.456 389.66 671.077 389.789 669.666 389.789C668.255 389.789 666.972 389.692 665.817 389.5C664.727 389.308 663.797 388.923 663.027 388.346C662.257 387.768 661.648 386.999 661.199 386.037C660.814 385.011 660.622 383.695 660.622 382.092V342.935C661.328 342.807 662.354 342.646 663.701 342.454C665.112 342.198 666.523 342.069 667.934 342.069C669.345 342.069 670.596 342.165 671.686 342.358C672.841 342.55 673.803 342.935 674.572 343.512C675.342 344.09 675.919 344.891 676.304 345.918C676.754 346.88 676.978 348.162 676.978 349.766V388.923ZM717.023 359.387C717.023 357.399 716.446 355.955 715.292 355.057C714.201 354.095 712.694 353.614 710.77 353.614C709.487 353.614 708.204 353.775 706.921 354.095C705.703 354.416 704.644 354.897 703.746 355.538V388.923C703.105 389.115 702.078 389.308 700.667 389.5C699.32 389.692 697.91 389.789 696.434 389.789C695.023 389.789 693.74 389.692 692.586 389.5C691.495 389.308 690.565 388.923 689.796 388.346C689.026 387.768 688.416 386.999 687.968 386.037C687.583 385.011 687.39 383.695 687.39 382.092V353.229C687.39 351.498 687.743 350.087 688.449 348.996C689.218 347.906 690.244 346.912 691.527 346.014C693.708 344.474 696.434 343.224 699.705 342.262C703.04 341.3 706.729 340.819 710.77 340.819C718.018 340.819 723.598 342.422 727.51 345.629C731.423 348.772 733.379 353.165 733.379 358.81V388.923C732.738 389.115 731.711 389.308 730.3 389.5C728.953 389.692 727.543 389.789 726.067 389.789C724.656 389.789 723.373 389.692 722.219 389.5C721.128 389.308 720.198 388.923 719.429 388.346C718.659 387.768 718.049 386.999 717.601 386.037C717.216 385.011 717.023 383.695 717.023 382.092V359.387ZM740.596 381.226C740.596 378.532 741.429 376.287 743.097 374.492C744.765 372.696 747.042 371.798 749.928 371.798C752.814 371.798 755.091 372.696 756.759 374.492C758.427 376.287 759.26 378.532 759.26 381.226C759.26 383.92 758.427 386.165 756.759 387.961C755.091 389.756 752.814 390.655 749.928 390.655C747.042 390.655 744.765 389.756 743.097 387.961C741.429 386.165 740.596 383.92 740.596 381.226ZM766.022 329.274C766.022 326.836 766.824 324.784 768.427 323.116C770.095 321.449 772.276 320.615 774.97 320.615C777.664 320.615 779.812 321.449 781.416 323.116C783.084 324.784 783.917 326.836 783.917 329.274C783.917 331.711 783.084 333.763 781.416 335.431C779.812 337.098 777.664 337.932 774.97 337.932C772.276 337.932 770.095 337.098 768.427 335.431C766.824 333.763 766.022 331.711 766.022 329.274ZM783.148 388.923C782.442 389.051 781.384 389.211 779.973 389.404C778.626 389.66 777.247 389.789 775.836 389.789C774.425 389.789 773.142 389.692 771.987 389.5C770.897 389.308 769.967 388.923 769.197 388.346C768.427 387.768 767.818 386.999 767.369 386.037C766.984 385.011 766.792 383.695 766.792 382.092V342.935C767.498 342.807 768.524 342.646 769.87 342.454C771.282 342.198 772.693 342.069 774.104 342.069C775.515 342.069 776.766 342.165 777.856 342.358C779.01 342.55 779.973 342.935 780.742 343.512C781.512 344.09 782.089 344.891 782.474 345.918C782.924 346.88 783.148 348.162 783.148 349.766V388.923ZM791.54 365.64C791.54 361.407 792.181 357.751 793.464 354.673C794.747 351.53 796.511 348.932 798.756 346.88C801.065 344.827 803.726 343.32 806.741 342.358C809.82 341.332 813.123 340.819 816.651 340.819C817.934 340.819 819.185 340.947 820.403 341.203C821.622 341.396 822.616 341.652 823.386 341.973V326.387C824.027 326.195 825.054 326.002 826.464 325.81C827.875 325.553 829.318 325.425 830.794 325.425C832.205 325.425 833.455 325.521 834.546 325.714C835.701 325.906 836.663 326.291 837.432 326.868C838.202 327.446 838.779 328.247 839.164 329.274C839.549 330.236 839.741 331.518 839.741 333.122V378.725C839.741 381.739 838.331 384.145 835.508 385.94C833.648 387.159 831.243 388.217 828.292 389.115C825.342 390.077 821.943 390.558 818.094 390.558C813.925 390.558 810.172 389.981 806.837 388.827C803.566 387.672 800.776 386.004 798.467 383.824C796.222 381.643 794.49 379.046 793.272 376.031C792.117 372.952 791.54 369.489 791.54 365.64ZM818.864 353.614C815.4 353.614 812.739 354.608 810.878 356.597C809.018 358.585 808.088 361.6 808.088 365.64C808.088 369.617 808.954 372.631 810.686 374.684C812.418 376.672 814.919 377.666 818.19 377.666C819.345 377.666 820.371 377.506 821.269 377.185C822.231 376.801 822.968 376.383 823.482 375.935V354.769C822.199 353.999 820.659 353.614 818.864 353.614Z" fill="#343A40"/>
<defs>
<linearGradient id="paint0_linear_108_52" x1="353.534" y1="400.238" x2="334.376" y2="359.153" gradientUnits="userSpaceOnUse">
<stop stop-color="#FF4D4D"/>
<stop offset="1" stop-color="#F9CB28"/>
</linearGradient>
<linearGradient id="paint1_linear_108_52" x1="307.176" y1="420.161" x2="255.61" y2="309.575" gradientUnits="userSpaceOnUse">
<stop stop-color="#FF4D4D"/>
<stop offset="1" stop-color="#F9CB28"/>
</linearGradient>
<linearGradient id="paint2_linear_108_52" x1="311.19" y1="391.162" x2="282.596" y2="329.84" gradientUnits="userSpaceOnUse">
<stop stop-color="#FF4D4D"/>
<stop offset="1" stop-color="#F9CB28"/>
</linearGradient>
</defs>
</svg>
