<svg width="135" height="135" viewBox="0 0 135 135" fill="none" xmlns="http://www.w3.org/2000/svg">
<path d="M80.1675 12.2465C80.2131 12.0465 80.2226 11.8617 80.1959 11.692C80.1736 11.5233 80.1016 11.3573 79.98 11.194C79.8583 11.0306 79.6735 10.8576 79.4254 10.6747C79.1828 10.4885 78.8651 10.2827 78.4724 10.0575C78.0428 9.80991 77.6523 9.55483 77.3008 9.29231C76.9548 9.02636 76.6638 8.74491 76.4278 8.44796C76.1927 8.14656 76.0297 7.82654 75.9387 7.48791C75.8487 7.14483 75.8494 6.77336 75.9406 6.37349C76.0309 5.97806 76.1952 5.63693 76.4336 5.35011C76.6765 5.06431 76.9781 4.83865 77.3384 4.67314C77.7042 4.5042 78.1128 4.40348 78.5643 4.37097C79.0168 4.33402 79.4986 4.37385 80.0095 4.49048C80.7293 4.65476 81.3187 4.92952 81.7777 5.31475C82.2411 5.70099 82.5615 6.15043 82.739 6.66306C82.921 7.17671 82.9501 7.70456 82.8263 8.24661L81.1669 7.86785C81.2399 7.54795 81.2354 7.2501 81.1535 6.97429C81.077 6.69506 80.9172 6.45292 80.6742 6.24787C80.4356 6.04383 80.1075 5.89415 79.6899 5.79883C79.2944 5.70857 78.9519 5.69351 78.6624 5.75364C78.3729 5.81377 78.1404 5.93132 77.9649 6.10629C77.7894 6.28126 77.6723 6.4976 77.6134 6.75529C77.5719 6.93746 77.576 7.1137 77.626 7.28404C77.6769 7.44992 77.7743 7.61707 77.9182 7.78546C78.0631 7.94942 78.2539 8.11685 78.4907 8.28776C78.7275 8.45866 79.012 8.63578 79.3441 8.81909C79.8452 9.10175 80.2733 9.38646 80.6286 9.67322C80.9849 9.95554 81.2684 10.2493 81.4792 10.5545C81.69 10.8597 81.8266 11.183 81.8889 11.5245C81.9522 11.8615 81.9392 12.2255 81.85 12.6165C81.7567 13.0252 81.5903 13.3752 81.3509 13.6665C81.1125 13.9533 80.8136 14.1772 80.4543 14.3383C80.1005 14.4959 79.6961 14.5883 79.2412 14.6153C78.7917 14.639 78.307 14.5915 77.7872 14.4728C77.3207 14.3663 76.875 14.1992 76.4502 13.9713C76.0299 13.7445 75.6642 13.4624 75.3533 13.1249C75.0433 12.7831 74.8231 12.3963 74.6926 11.9645C74.5631 11.5282 74.5572 11.0524 74.6748 10.537L76.3476 10.9188C76.2756 11.2343 76.2676 11.5153 76.3235 11.7617C76.3839 12.0093 76.4956 12.2264 76.6586 12.4132C76.8227 12.5956 77.0259 12.7495 77.2684 12.8749C77.5154 13.0014 77.7877 13.0986 78.0853 13.1666C78.4763 13.2558 78.8156 13.2748 79.1031 13.2235C79.395 13.1733 79.6304 13.0634 79.8094 12.8939C79.9883 12.7244 80.1077 12.5086 80.1675 12.2465Z" fill="black"/>
<path d="M92.8279 18.0467L92.2377 19.2724L87.4768 16.9796L88.0671 15.754L92.8279 18.0467ZM92.2326 8.22276L87.9141 17.1902L86.3682 16.4458L90.6867 7.4783L92.2326 8.22276ZM94.1308 13.75L93.5495 14.9571L89.4107 12.964L89.992 11.7568L94.1308 13.75ZM96.5254 10.2901L95.9322 11.5219L91.2021 9.24397L91.7953 8.01218L96.5254 10.2901Z" fill="black"/>
<path d="M103.25 24.8802L102.402 25.9438L98.2707 22.6491L99.1189 21.5856L103.25 24.8802ZM104.856 15.1701L98.6502 22.9517L97.3087 21.8819L103.514 14.1003L104.856 15.1701ZM105.477 20.9811L104.641 22.0286L101.05 19.1645L101.885 18.117L105.477 20.9811ZM108.581 18.1408L107.729 19.2097L103.624 15.9364L104.476 14.8675L108.581 18.1408Z" fill="black"/>
<path d="M123.719 39.0103L114.656 40.0742L113.876 38.4544L124.469 37.511L124.967 38.5457L123.719 39.0103ZM117.026 44.9952L123.505 38.5668L124.644 37.8744L125.145 38.9153L117.809 46.6212L117.026 44.9952ZM120.289 43.2643L119.064 43.8545L116.715 38.9766L117.94 38.3864L120.289 43.2643Z" fill="black"/>
<path d="M122.142 56.1083L120.816 56.411L119.704 51.5392L121.03 51.2365L122.142 56.1083ZM129.514 49.7909L119.81 52.0057L119.429 50.3329L129.132 48.1181L129.514 49.7909Z" fill="black"/>
<path d="M123.36 69.2461H122V64.249H123.36V69.2461ZM131.953 64.7275H122V63.0117H131.953V64.7275Z" fill="black"/>
<path d="M119.915 89.5861L126.008 94.7208L125.558 95.657L123.816 94.6892L117.56 89.3245L118.029 88.3514L119.915 89.5861ZM127.512 91.5982L119.917 89.7237L117.785 88.8564L118.284 87.8217L128.251 90.0646L127.512 91.5982ZM117.702 94.3703L123.894 99.1122L123.152 100.652L115.184 94.2578L115.683 93.2231L117.702 94.3703ZM125.383 96.0204L117.559 94.4305L115.439 93.7282L115.908 92.7551L123.988 94.332L125.827 95.0965L125.383 96.0204Z" fill="black"/>
<path d="M112.704 106.787L112.276 106.446C111.688 105.978 111.222 105.48 110.878 104.955C110.533 104.43 110.311 103.894 110.21 103.347C110.107 102.804 110.125 102.265 110.266 101.731C110.411 101.199 110.675 100.692 111.058 100.211C111.439 99.7339 111.873 99.3656 112.359 99.1065C112.846 98.8538 113.369 98.7139 113.927 98.6867C114.485 98.6595 115.061 98.7518 115.656 98.9637C116.247 99.1792 116.837 99.5213 117.425 99.9901L117.853 100.331C118.441 100.8 118.904 101.297 119.242 101.824C119.583 102.353 119.805 102.89 119.905 103.437C120.006 103.99 119.986 104.53 119.845 105.059C119.704 105.593 119.443 106.099 119.062 106.577C118.679 107.058 118.242 107.426 117.752 107.683C117.265 107.942 116.743 108.082 116.184 108.103C115.629 108.126 115.057 108.029 114.468 107.809C113.88 107.597 113.292 107.256 112.704 106.787ZM113.346 105.105L113.784 105.454C114.219 105.801 114.636 106.064 115.036 106.242C115.436 106.428 115.814 106.528 116.169 106.543C116.525 106.564 116.854 106.503 117.155 106.359C117.46 106.217 117.731 105.999 117.967 105.703C118.202 105.407 118.354 105.097 118.421 104.771C118.492 104.449 118.478 104.115 118.381 103.769C118.284 103.43 118.103 103.084 117.836 102.731C117.573 102.381 117.224 102.033 116.789 101.686L116.351 101.337C115.916 100.99 115.497 100.726 115.094 100.545C114.691 100.363 114.308 100.262 113.946 100.241C113.585 100.227 113.253 100.288 112.95 100.426C112.652 100.567 112.384 100.785 112.149 101.081C111.91 101.38 111.755 101.691 111.685 102.014C111.617 102.339 111.634 102.673 111.734 103.015C111.838 103.36 112.024 103.707 112.294 104.056C112.561 104.409 112.911 104.758 113.346 105.105Z" fill="black"/>
<path d="M112.019 114.547L109.267 116.742C108.675 117.214 108.1 117.527 107.541 117.681C106.982 117.836 106.453 117.826 105.954 117.653C105.454 117.487 105 117.149 104.594 116.639C104.284 116.251 104.083 115.852 103.99 115.442C103.896 115.033 103.899 114.623 103.997 114.213C104.098 113.806 104.284 113.403 104.556 113.006L104.804 112.484L107.279 110.511L108.138 111.566L106.283 113.045C105.963 113.301 105.741 113.571 105.618 113.855C105.495 114.14 105.458 114.423 105.508 114.704C105.556 114.992 105.68 115.26 105.879 115.509C106.095 115.78 106.336 115.973 106.602 116.087C106.867 116.208 107.151 116.235 107.454 116.168C107.759 116.106 108.079 115.941 108.414 115.674L109.825 114.548L104.472 107.836L105.814 106.766L112.019 114.547ZM101.372 110.308L105.988 112.345L104.586 113.472L99.9953 111.519L99.9399 111.45L101.372 110.308Z" fill="black"/>
<path d="M98.9413 123.976L94.6228 115.009L96.1687 114.264L100.487 123.232L98.9413 123.976ZM93.5522 126.571L95.1068 120.504L96.1203 117.315L97.1299 118.718L96.5296 121.253L95.4368 125.664L93.5522 126.571ZM90.8966 116.803L95.8933 119.632L95.335 121.198L89.0612 117.687L90.8966 116.803Z" fill="black"/>
<path d="M80.5618 123.093C80.6075 123.293 80.6791 123.464 80.7768 123.605C80.8701 123.747 81.007 123.866 81.1874 123.96C81.3679 124.054 81.6096 124.13 81.9124 124.187C82.2118 124.25 82.5873 124.297 83.0388 124.33C83.5333 124.367 83.9958 124.427 84.4264 124.511C84.8535 124.6 85.2378 124.728 85.5793 124.893C85.9219 125.062 86.2076 125.28 86.4365 125.546C86.6664 125.816 86.827 126.151 86.9183 126.551C87.0085 126.946 87.0085 127.325 86.9181 127.686C86.8233 128.049 86.6495 128.384 86.3967 128.689C86.1404 129 85.816 129.268 85.4233 129.493C85.0316 129.723 84.5803 129.896 84.0694 130.013C83.3496 130.177 82.6994 130.185 82.1187 130.037C81.5336 129.89 81.0498 129.624 80.6675 129.239C80.2807 128.856 80.0255 128.393 79.9018 127.851L81.5612 127.472C81.6342 127.792 81.7675 128.058 81.961 128.271C82.1511 128.489 82.4001 128.638 82.708 128.718C83.0115 128.798 83.3721 128.79 83.7897 128.695C84.1851 128.605 84.5002 128.47 84.735 128.29C84.9697 128.11 85.1282 127.903 85.2104 127.67C85.2926 127.436 85.3043 127.19 85.2455 126.932C85.2039 126.75 85.1237 126.593 85.0048 126.461C84.8869 126.334 84.7266 126.226 84.5239 126.136C84.3223 126.052 84.0777 125.984 83.7902 125.932C83.5027 125.881 83.1696 125.845 82.7908 125.824C82.2167 125.787 81.7074 125.716 81.2629 125.612C80.8194 125.512 80.4365 125.37 80.1141 125.187C79.7918 125.003 79.5285 124.771 79.3242 124.491C79.1209 124.214 78.9747 123.881 78.8854 123.49C78.7921 123.081 78.7902 122.694 78.8795 122.327C78.9699 121.965 79.142 121.634 79.3958 121.333C79.6462 121.037 79.9705 120.779 80.3686 120.557C80.7633 120.341 81.2206 120.173 81.7404 120.055C82.2069 119.948 82.681 119.905 83.1626 119.926C83.6397 119.948 84.0916 120.044 84.5182 120.213C84.9457 120.386 85.312 120.639 85.6169 120.972C85.9229 121.309 86.1346 121.735 86.2523 122.25L84.5795 122.632C84.5075 122.316 84.3928 122.06 84.2355 121.862C84.0737 121.665 83.8788 121.518 83.6509 121.42C83.4239 121.327 83.174 121.277 82.9011 121.269C82.6238 121.262 82.3363 121.293 82.0386 121.361C81.6476 121.45 81.3337 121.58 81.0969 121.751C80.8557 121.923 80.6912 122.124 80.6036 122.354C80.5159 122.585 80.502 122.831 80.5618 123.093Z" fill="black"/>
<path d="M55.2622 123.183C55.2166 123.383 55.2071 123.568 55.2338 123.738C55.2561 123.906 55.328 124.072 55.4497 124.236C55.5713 124.399 55.7562 124.572 56.0043 124.755C56.2469 124.941 56.5646 125.147 56.9573 125.372C57.3869 125.62 57.7774 125.875 58.1289 126.137C58.4748 126.403 58.7659 126.685 59.0019 126.982C59.237 127.283 59.4 127.603 59.491 127.942C59.581 128.285 59.5803 128.656 59.4891 129.056C59.3988 129.452 59.2345 129.793 58.996 130.08C58.7532 130.365 58.4516 130.591 58.0913 130.756C57.7255 130.925 57.3169 131.026 56.8654 131.059C56.4129 131.096 55.9311 131.056 55.4202 130.939C54.7004 130.775 54.111 130.5 53.652 130.115C53.1886 129.729 52.8681 129.279 52.6907 128.767C52.5087 128.253 52.4796 127.725 52.6033 127.183L54.2628 127.562C54.1898 127.882 54.1943 128.18 54.2762 128.455C54.3527 128.735 54.5125 128.977 54.7555 129.182C54.9941 129.386 55.3222 129.535 55.7398 129.631C56.1353 129.721 56.4777 129.736 56.7673 129.676C57.0568 129.616 57.2893 129.498 57.4648 129.323C57.6403 129.148 57.7574 128.932 57.8163 128.674C57.8578 128.492 57.8536 128.316 57.8037 128.146C57.7528 127.98 57.6553 127.813 57.5115 127.644C57.3666 127.48 57.1758 127.313 56.939 127.142C56.7022 126.971 56.4177 126.794 56.0856 126.611C55.5845 126.328 55.1563 126.043 54.8011 125.756C54.4448 125.474 54.1613 125.18 53.9505 124.875C53.7397 124.57 53.6031 124.247 53.5408 123.905C53.4775 123.568 53.4905 123.204 53.5797 122.813C53.673 122.404 53.8394 122.054 54.0788 121.763C54.3172 121.476 54.6161 121.252 54.9754 121.091C55.3292 120.934 55.7336 120.841 56.1885 120.814C56.638 120.791 57.1226 120.838 57.6425 120.957C58.109 121.063 58.5547 121.23 58.9795 121.458C59.3998 121.685 59.7655 121.967 60.0764 122.305C60.3864 122.647 60.6066 123.033 60.7371 123.465C60.8666 123.901 60.8725 124.377 60.7549 124.893L59.0821 124.511C59.1541 124.195 59.1621 123.914 59.1062 123.668C59.0458 123.42 58.9341 123.203 58.7711 123.016C58.607 122.834 58.4037 122.68 58.1613 122.555C57.9143 122.428 57.642 122.331 57.3443 122.263C56.9534 122.174 56.6141 122.155 56.3266 122.206C56.0347 122.256 55.7993 122.366 55.6203 122.536C55.4414 122.705 55.322 122.921 55.2622 123.183Z" fill="black"/>
<path d="M42.6018 117.383L43.192 116.157L47.9529 118.45L47.3626 119.676L42.6018 117.383ZM43.1971 127.207L47.5156 118.239L49.0615 118.984L44.743 127.951L43.1971 127.207ZM41.2989 121.68L41.8802 120.472L46.019 122.466L45.4377 123.673L41.2989 121.68ZM38.9043 125.14L39.4975 123.908L44.2276 126.186L43.6344 127.417L38.9043 125.14Z" fill="black"/>
<path d="M32.1795 110.549L33.0277 109.486L37.159 112.78L36.3108 113.844L32.1795 110.549ZM30.5739 120.259L36.7795 112.478L38.121 113.548L31.9153 121.329L30.5739 120.259ZM29.9532 114.448L30.7885 113.401L34.3801 116.265L33.5447 117.313L29.9532 114.448ZM26.8487 117.289L27.7011 116.22L31.8058 119.493L30.9533 120.562L26.8487 117.289Z" fill="black"/>
<path d="M11.7109 96.4193L20.7737 95.3554L21.5538 96.9752L10.9609 97.9186L10.4627 96.8839L11.7109 96.4193ZM18.4039 90.4344L11.9244 96.8628L10.786 97.5552L10.2847 96.5143L17.6209 88.8084L18.4039 90.4344ZM15.1403 92.1654L16.366 91.5751L18.715 96.453L17.4894 97.0433L15.1403 92.1654Z" fill="black"/>
<path d="M13.2877 79.3213L14.6139 79.0186L15.7259 83.8904L14.3996 84.1931L13.2877 79.3213ZM5.9158 85.6387L15.6194 83.4239L16.0012 85.0967L6.2976 87.3115L5.9158 85.6387Z" fill="black"/>
<path d="M11.6396 66.7539H13L13 71.751H11.6396L11.6396 66.7539ZM3.04687 71.2725H13V72.9883H3.04688L3.04687 71.2725Z" fill="black"/>
<path d="M15.5146 45.8435L9.42127 40.7088L9.87211 39.7726L11.6139 40.7404L17.8697 46.1051L17.4011 47.0782L15.5146 45.8435ZM7.91751 43.8314L15.5126 45.706L17.6443 46.5732L17.146 47.6079L7.17898 45.365L7.91751 43.8314ZM17.7275 41.0594L11.536 36.3175L12.2775 34.7777L20.2454 41.1718L19.7472 42.2065L17.7275 41.0594ZM10.0471 39.4093L17.8703 40.9991L19.9904 41.7015L19.5217 42.6746L11.4419 41.0977L9.6022 40.3331L10.0471 39.4093Z" fill="black"/>
<path d="M22.7257 28.6423L23.1533 28.9833C23.7412 29.4521 24.2074 29.9492 24.552 30.4747C24.8966 31.0001 25.1191 31.5361 25.2196 32.0825C25.3229 32.6254 25.3042 33.1642 25.1634 33.6989C25.019 34.2308 24.755 34.7373 24.3714 35.2183C23.9907 35.6957 23.5571 36.064 23.0707 36.3231C22.5835 36.5758 22.061 36.7158 21.503 36.743C20.9451 36.7702 20.3688 36.6778 19.7742 36.4659C19.1824 36.2505 18.5925 35.9083 18.0046 35.4395L17.5771 35.0985C16.9892 34.6297 16.5261 34.1322 16.188 33.606C15.8462 33.077 15.6251 32.5393 15.5246 31.9928C15.4234 31.44 15.4436 30.8994 15.5851 30.3711C15.7259 29.8364 15.9867 29.3303 16.3675 28.8528C16.7511 28.3718 17.1878 28.0032 17.6778 27.7469C18.1643 27.4878 18.6868 27.3478 19.2455 27.3271C19.8006 27.3034 20.3726 27.4011 20.9616 27.6201C21.5498 27.8327 22.1378 28.1735 22.7257 28.6423ZM22.0835 30.3248L21.6452 29.9753C21.2106 29.6286 20.7934 29.3659 20.3939 29.1872C19.9936 29.002 19.6159 28.9019 19.2607 28.8868C18.9048 28.8653 18.5761 28.9266 18.2745 29.0709C17.9694 29.2123 17.6989 29.4308 17.4631 29.7266C17.2273 30.0223 17.0758 30.3328 17.0087 30.6582C16.938 30.9807 16.9513 31.3149 17.0486 31.6606C17.1453 32 17.3269 32.3459 17.5937 32.6985C17.8568 33.0483 18.2058 33.3965 18.6404 33.7432L19.0787 34.0927C19.5134 34.4393 19.9323 34.7034 20.3354 34.885C20.7385 35.0666 21.1212 35.1678 21.4835 35.1886C21.8451 35.203 22.1771 35.1412 22.4793 35.0034C22.778 34.8627 23.0453 34.6445 23.2811 34.3488C23.5198 34.0495 23.6745 33.7386 23.7452 33.4161C23.8123 33.0907 23.7958 32.7569 23.6956 32.4148C23.5919 32.0697 23.4052 31.7227 23.1356 31.3736C22.8689 31.021 22.5182 30.6714 22.0835 30.3248Z" fill="black"/>
<path d="M23.4104 20.8822L26.1629 18.6872C26.7543 18.2155 27.3295 17.9025 27.8885 17.7482C28.4474 17.594 28.9766 17.6033 29.4759 17.7763C29.976 17.9429 30.4292 18.281 30.8356 18.7905C31.1453 19.1789 31.3468 19.5777 31.4401 19.9871C31.5334 20.3965 31.531 20.8065 31.4329 21.217C31.3319 21.6239 31.1455 22.0261 30.8737 22.4236L30.6252 22.9453L28.1507 24.9186L27.2919 23.8636L29.1464 22.3846C29.4671 22.1289 29.6889 21.8588 29.8117 21.5743C29.9346 21.2898 29.9713 21.0069 29.9219 20.7257C29.8733 20.4381 29.7495 20.1696 29.5506 19.9202C29.3346 19.6494 29.0936 19.4568 28.8276 19.3425C28.5623 19.2219 28.2784 19.1947 27.9758 19.2612C27.6704 19.324 27.3502 19.489 27.0153 19.7561L25.6043 20.8813L30.9576 27.5941L29.6161 28.6639L23.4104 20.8822ZM34.0574 25.122L29.4421 23.0844L30.8435 21.9581L35.4343 23.9103L35.4897 23.9798L34.0574 25.122Z" fill="black"/>
<path d="M36.4884 11.4534L40.8069 20.4208L39.261 21.1653L34.9425 12.1978L36.4884 11.4534ZM41.8775 8.85812L40.3229 14.9255L39.3094 18.1147L38.2998 16.7116L38.9 14.1767L39.9929 9.76571L41.8775 8.85812ZM44.5331 18.6264L39.5364 15.7974L40.0947 14.2311L46.3684 17.7425L44.5331 18.6264Z" fill="black"/>
<path d="M54.8678 12.3364C54.8222 12.1365 54.7505 11.9659 54.6528 11.8245C54.5596 11.6822 54.4227 11.5639 54.2423 11.4695C54.0618 11.3751 53.8201 11.2994 53.5173 11.2423C53.2179 11.1798 52.8424 11.1323 52.3909 11.0997C51.8964 11.063 51.4338 11.0027 51.0033 10.9186C50.5762 10.8291 50.1919 10.7018 49.8504 10.5367C49.5078 10.3671 49.2221 10.1495 48.9932 9.88392C48.7633 9.61386 48.6027 9.27889 48.5114 8.87902C48.4211 8.48359 48.4212 8.10494 48.5116 7.74308C48.6064 7.3802 48.7802 7.04604 49.033 6.74059C49.2893 6.42968 49.6137 6.16163 50.0064 5.93644C50.3981 5.70681 50.8494 5.53369 51.3603 5.41706C52.0801 5.25278 52.7303 5.24461 53.311 5.39254C53.8961 5.53946 54.3798 5.80535 54.7622 6.19021C55.149 6.57405 55.4042 7.037 55.5279 7.57905L53.8685 7.95781C53.7954 7.63791 53.6622 7.3715 53.4687 7.15857C53.2786 6.94018 53.0296 6.79134 52.7217 6.71203C52.4182 6.63172 52.0576 6.63922 51.64 6.73454C51.2446 6.8248 50.9295 6.95982 50.6947 7.13962C50.4599 7.31941 50.3015 7.5262 50.2193 7.75999C50.1371 7.99378 50.1254 8.23952 50.1842 8.49721C50.2258 8.67938 50.306 8.83636 50.4249 8.96815C50.5428 9.0955 50.7031 9.20383 50.9058 9.29313C51.1074 9.37798 51.352 9.44603 51.6395 9.49728C51.927 9.54852 52.2601 9.58468 52.6389 9.60574C53.213 9.64298 53.7223 9.71372 54.1668 9.81794C54.6103 9.91772 54.9932 10.0594 55.3156 10.2429C55.6379 10.4264 55.9012 10.6585 56.1055 10.9391C56.3088 11.2152 56.455 11.5488 56.5443 11.9398C56.6376 12.3485 56.6395 12.7361 56.5502 13.1024C56.4598 13.4642 56.2877 13.7957 56.0339 14.0967C55.7835 14.3922 55.4592 14.6509 55.0611 14.8726C54.6664 15.0889 54.2091 15.2564 53.6893 15.3751C53.2227 15.4815 52.7487 15.5243 52.2671 15.5033C51.79 15.4813 51.3381 15.3858 50.9115 15.2167C50.4839 15.0432 50.1177 14.7902 49.8128 14.4578C49.5068 14.121 49.295 13.6948 49.1774 13.1795L50.8502 12.7977C50.9222 13.1131 51.0369 13.3697 51.1942 13.5676C51.356 13.7644 51.5509 13.9115 51.7788 14.0091C52.0057 14.1022 52.2557 14.1527 52.5286 14.1605C52.8059 14.1673 53.0934 14.1368 53.3911 14.0688C53.7821 13.9796 54.096 13.8495 54.3328 13.6786C54.574 13.5067 54.7384 13.3055 54.8261 13.0752C54.9138 12.8448 54.9277 12.5986 54.8678 12.3364Z" fill="black"/>
</svg>
