<svg width="100" height="100" viewBox="0 0 100 100" fill="none" xmlns="http://www.w3.org/2000/svg">
<path d="M31.6641 60.7969V39.6406H32.8125V42.9687C32.9481 42.8213 33.0734 42.6647 33.1875 42.5C33.6568 41.5259 34.394 40.7057 35.3128 40.1356C36.2316 39.5655 37.2938 39.2692 38.375 39.2812C40.9922 39.2031 43.1172 40.1719 44.3672 42.5C45.1625 43.9463 45.6002 45.5619 45.6437 47.2118C45.6872 48.8618 45.3352 50.4982 44.6172 51.9844C43.4531 54.5937 40.5781 55.8906 37.5 55.4141C36.5421 55.3325 35.6199 55.0123 34.8175 54.4829C34.0151 53.9534 33.358 53.2314 32.9062 52.3828V60.7969H31.6641ZM32.8125 47.125C32.9141 48.1562 32.9531 48.8906 33.0703 49.6094C33.5234 52.4375 35.1953 54.1172 37.8203 54.4219C39.0529 54.6245 40.3175 54.3934 41.3988 53.768C42.4801 53.1426 43.311 52.1616 43.75 50.9922C44.2544 49.7893 44.4972 48.4929 44.4622 47.1891C44.4272 45.8852 44.1152 44.6037 43.5469 43.4297C43.0783 42.3816 42.2814 41.5144 41.2765 40.9591C40.2716 40.4038 39.1133 40.1905 37.9766 40.3516C36.9093 40.4289 35.8926 40.8369 35.0679 41.5187C34.2432 42.2006 33.6515 43.1225 33.375 44.1562C33.1303 45.1341 32.9425 46.1254 32.8125 47.125V47.125ZM69.0703 50C68.8963 51.4895 68.1872 52.8652 67.075 53.8711C65.9627 54.8771 64.5229 55.4448 63.0234 55.4687C58.2109 55.7109 55.9531 52.5156 55.5938 48.8281C55.3443 46.8256 55.6695 44.7935 56.5313 42.9687C57.1314 41.7171 58.1143 40.6889 59.3376 40.033C60.561 39.3771 61.9613 39.1275 63.3359 39.3203C64.6428 39.4311 65.8817 39.9502 66.8772 40.804C67.8727 41.6579 68.5744 42.8034 68.8828 44.0781C69.1273 45.2391 69.3073 46.4128 69.4219 47.5937H56.7734C56.5391 50.9375 58.3359 53.625 60.8828 54.2734C64.0547 55.0547 66.7656 53.6797 67.75 50.6641C67.9688 49.8906 68.3672 49.7812 69.0703 50V50ZM56.7734 46.5234H68.0781C68.0078 42.9609 65.7891 40.3828 62.7813 40.3437C59.375 40.2891 56.9219 42.7734 56.7734 46.5234ZM71.3984 50.0781H72.5078C72.5488 50.8944 72.814 51.6836 73.2744 52.359C73.7347 53.0343 74.3724 53.5697 75.1172 53.9062C76.0525 54.3271 77.0707 54.5317 78.096 54.5046C79.1213 54.4776 80.1273 54.2196 81.0391 53.75C81.536 53.526 81.9522 53.155 82.2316 52.687C82.511 52.2189 82.6401 51.6765 82.6016 51.1328C82.6301 50.6084 82.4869 50.0891 82.1937 49.6534C81.9004 49.2178 81.4731 48.8896 80.9766 48.7187C79.7578 48.2656 78.4609 48.0156 77.2187 47.6172C75.9263 47.2491 74.6625 46.787 73.4375 46.2344C71.4375 45.2578 71.3125 41.4531 73.5781 40.25C74.7382 39.5953 76.0438 39.2416 77.3757 39.2212C78.7076 39.2007 80.0235 39.5141 81.2031 40.1328C81.9177 40.5278 82.495 41.1312 82.8579 41.8626C83.2208 42.594 83.3521 43.4186 83.2344 44.2266H82.2813C82.2813 44.1797 82.1953 44.1406 82.1953 44.0937C82.0781 41.0547 79.5313 40.1172 76.7969 40.3828C75.9806 40.4835 75.1878 40.724 74.4531 41.0937C74.0118 41.2956 73.6439 41.6295 73.4005 42.0493C73.157 42.4691 73.0498 42.9542 73.0938 43.4375C73.0951 43.921 73.246 44.3923 73.5257 44.7868C73.8055 45.1812 74.2004 45.4794 74.6563 45.6406C75.8594 46.0781 77.1172 46.3594 78.3516 46.7031C79.3438 46.9766 80.375 47.1562 81.3359 47.4844C82.0142 47.7067 82.6089 48.1298 83.0414 48.6976C83.4739 49.2654 83.7237 49.9511 83.7578 50.6641C83.8738 51.4452 83.7407 52.243 83.3774 52.9442C83.0142 53.6454 82.4393 54.2144 81.7344 54.5703C79.125 56.0469 74.8281 55.6562 72.9141 53.7891C72.429 53.3012 72.0453 52.7221 71.7851 52.0852C71.525 51.4482 71.3936 50.7661 71.3984 50.0781ZM97.8203 44.2266H96.7812C96.7812 44.0859 96.7266 43.9609 96.7109 43.8437C96.6941 43.0649 96.4101 42.3155 95.9067 41.721C95.4032 41.1265 94.7108 40.723 93.9453 40.5781C92.501 40.1637 90.9603 40.2379 89.5625 40.7891C89.01 40.9475 88.5235 41.2803 88.1758 41.738C87.828 42.1956 87.6375 42.7534 87.6328 43.3281C87.6134 43.8926 87.7893 44.4464 88.1309 44.8962C88.4725 45.346 88.9589 45.6641 89.5078 45.7969C91.0703 46.2812 92.6719 46.5781 94.2578 47.0156C94.7717 47.139 95.2778 47.2929 95.7734 47.4766C96.5135 47.7413 97.1564 48.2232 97.6183 48.8591C98.0801 49.4951 98.3394 50.2556 98.3622 51.0413C98.3849 51.8269 98.1702 52.6012 97.746 53.2628C97.3218 53.9245 96.7078 54.4428 95.9844 54.75C94.8819 55.2506 93.687 55.5155 92.4762 55.5276C91.2654 55.5397 90.0654 55.2988 88.9531 54.8203C88.0384 54.4258 87.2666 53.7606 86.7414 52.9141C86.2162 52.0677 85.9629 51.0807 86.0156 50.0859H87.0313C87.2191 50.9924 87.6252 51.8394 88.2141 52.5536C88.8031 53.2678 89.5574 53.8277 90.4115 54.1847C91.2656 54.5418 92.1939 54.6852 93.1159 54.6027C94.038 54.5201 94.926 54.214 95.7031 53.7109C96.1765 53.465 96.5695 53.0884 96.8353 52.626C97.1012 52.1635 97.2288 51.6344 97.2031 51.1016C97.2267 50.5769 97.0785 50.0588 96.781 49.626C96.4835 49.1932 96.053 48.8692 95.5547 48.7031C94.3359 48.25 93.0391 48.0078 91.7969 47.6094C90.497 47.247 89.2254 46.79 87.9922 46.2422C86.0391 45.2812 85.8828 41.5078 88.1094 40.3047C89.2839 39.6226 90.615 39.2562 91.9731 39.2411C93.3312 39.2261 94.67 39.5629 95.8594 40.2187C96.5396 40.6248 97.087 41.2198 97.4352 41.9314C97.7833 42.6429 97.9171 43.4403 97.8203 44.2266V44.2266ZM29.7656 55.0859C29.3566 55.2408 28.905 55.2405 28.4962 55.085C28.0873 54.9296 27.7496 54.6297 27.5469 54.2422C26.2734 52.3359 24.8672 50.5156 23.5156 48.6562L22.9297 47.875C21.3203 50.0312 19.7109 52.1016 18.2422 54.25C18.0508 54.6204 17.7314 54.9086 17.3433 55.0609C16.9552 55.2133 16.525 55.2194 16.1328 55.0781L22.1719 46.9766L16.5547 39.6562C16.959 39.5102 17.4014 39.5082 17.807 39.6506C18.2127 39.7929 18.5568 40.0709 18.7812 40.4375C20.0859 42.3437 21.5313 44.1641 22.9688 46.0937C24.4141 44.1797 25.8437 42.3516 27.1797 40.4609C27.3721 40.0966 27.6917 39.8156 28.0778 39.6716C28.4638 39.5275 28.8894 39.5304 29.2734 39.6797L27.0937 42.5703C26.1172 43.8594 25.1563 45.1562 24.1406 46.4141C24.0588 46.4873 23.9933 46.577 23.9485 46.6773C23.9037 46.7776 23.8805 46.8862 23.8805 46.9961C23.8805 47.1059 23.9037 47.2146 23.9485 47.3148C23.9933 47.4151 24.0588 47.5048 24.1406 47.5781C26.0078 50.0547 27.8594 52.5391 29.7656 55.0859V55.0859ZM55.4063 39.5781V40.6719C54.6161 40.62 53.8238 40.7345 53.0806 41.0078C52.3374 41.2811 51.6598 41.7072 51.0915 42.2586C50.5231 42.81 50.0767 43.4744 49.7811 44.209C49.4854 44.9436 49.3471 45.7321 49.375 46.5234V55.1172H48.2578V39.6406H49.3516V42.8125C50.7031 40.5 52.7891 39.6406 55.4063 39.5781V39.5781ZM1.66406 46.875C1.82812 46.0937 1.92969 45.2422 2.15625 44.4453C3.50781 39.6406 9.01562 37.6406 12.8047 40.6172C15.0234 42.3594 15.5781 44.8281 15.4687 47.6094H2.96875C2.76562 52.5781 6.35156 55.5781 10.9375 54.0469C11.6814 53.7808 12.3473 53.3336 12.8752 52.7458C13.403 52.1579 13.7762 51.4478 13.9609 50.6797C14.2031 49.8984 14.5938 49.7656 15.3359 49.9922C15.2137 50.9433 14.8774 51.8543 14.3524 52.6567C13.8273 53.4591 13.1272 54.1321 12.3047 54.625C10.9456 55.3682 9.38637 55.6626 7.84988 55.4662C6.31339 55.2697 4.87836 54.5925 3.75 53.5312C2.63372 52.2761 1.95875 50.6902 1.82812 49.0156C1.82812 48.75 1.72656 48.4844 1.67187 48.2344C1.66667 47.7708 1.66406 47.3177 1.66406 46.875V46.875ZM2.98437 46.5391H14.2891C14.2187 42.9375 11.9453 40.3828 8.91406 40.3594C5.53906 40.3125 3.125 42.8125 2.97656 46.5234L2.98437 46.5391Z" fill="black"/>
</svg>
