<svg width="100" height="100" viewBox="0 0 100 100" fill="none" xmlns="http://www.w3.org/2000/svg">
<path fill-rule="evenodd" clip-rule="evenodd" d="M13.2297 1.34302C12.3492 1.41177 11.4844 1.40083 10.632 1.63442C8.76719 2.14614 7.11016 2.96411 5.64844 4.22505C4.78906 4.96567 4.03906 5.76411 3.40234 6.70474C2.41953 8.15708 1.75 9.71802 1.41406 11.475C1.54844 11.7102 1.68984 11.9571 1.83984 12.2079C2.79219 13.8 3.74531 15.3813 4.7 16.9719L7.20937 21.1446C7.98125 22.4305 8.75156 23.7172 9.52187 25.0032L13.1219 31.0094L15.5773 35.1063C16.7703 37.0946 17.9664 39.0813 19.1578 41.0704L23.5398 48.3915C24.8031 50.5 26.0687 52.6071 27.3344 54.7141L27.5031 54.9594C27.6867 55.018 27.8328 54.968 27.9844 54.9321C29.6516 54.5321 31.3188 54.1344 32.9859 53.736C35.6898 53.0899 38.3937 52.4461 41.0977 51.7993L45.3328 50.786C48.0664 50.1329 50.8008 49.4813 53.5344 48.8266C56.2977 48.1657 59.0602 47.5016 61.8242 46.8399C63.2211 46.5047 64.618 46.1711 66.0156 45.8375C68.7195 45.1922 71.4234 44.5485 74.1273 43.9047L82.9617 41.8008L83.4391 41.6719L83.3086 41.4133L80.8977 38.0055L78.5164 34.6344L75.9695 31.0375L73.5352 27.5899L71.1227 24.1829L68.632 20.6618C67.8187 19.5133 67.0039 18.3665 66.1898 17.2188L64.9031 15.4016C64.705 15.1249 64.5504 14.8196 64.4445 14.4961C64.1898 13.7063 64.4805 13.1805 64.9414 12.7922C65.2398 12.5399 65.5836 12.3547 65.9555 12.2454C66.472 12.0866 66.9961 11.9537 67.5258 11.8469C68.5875 11.6461 69.6563 11.4758 70.7219 11.2985L74.3344 10.7094C75.0961 10.5836 75.857 10.4516 76.6187 10.3227C77.6539 10.1477 78.6891 9.97192 79.725 9.79927C80.7305 9.63052 81.7359 9.46333 82.7414 9.29771L86.0328 8.75942L88.3172 8.37583C89.1859 8.23052 90.0539 8.08599 90.9219 7.9438C92.0047 7.76724 93.0867 7.58911 94.1695 7.41958C94.8148 7.3188 95.4602 7.28364 96.1008 7.46802C96.576 7.60875 97.0239 7.82878 97.4258 8.1188L97.9891 8.51177C98.0453 8.38208 97.9641 8.31177 97.9266 8.23755C97.127 6.60748 95.993 5.16415 94.5984 4.00161C93.3043 2.91436 91.8079 2.09391 90.1953 1.58755C89.2352 1.28364 88.2484 1.42505 87.2437 1.34927M43.507 99.2188C43.4586 99.2188 43.4156 98.8672 43.3609 98.7743C42.1891 96.7743 41.0047 94.6274 39.8469 92.6204C38.3891 90.09 36.9419 87.5535 35.5055 85.011C33.9703 82.2938 32.4484 79.5688 30.925 76.8454C29.4774 74.2562 28.0323 71.6656 26.5898 69.0735C25.7187 67.5071 24.8531 65.9375 23.9828 64.3704L23.7516 64.0118L23.3281 64.0954C22.4906 64.3118 21.6547 64.5297 20.8188 64.75C19.6547 65.0563 18.4914 65.368 17.3266 65.6719C14.7117 66.3524 12.0969 67.029 9.48203 67.7071C6.82266 68.3977 4.05156 69.0899 1.39141 69.7774C1.22969 69.8188 1.5625 69.8329 0.78125 69.8602V86.3797C1.10313 86.8922 1.07266 86.6508 1.09297 86.8196C1.15469 87.3086 1.25469 87.8016 1.34062 88.286C1.6625 90.0907 2.38672 91.743 3.43359 93.2477C4.96875 95.4555 7.01328 97.0336 9.51797 97.9993C10.4125 98.343 11.3461 98.5852 12.3008 98.7024L13.2703 98.9586" fill="#FD4F31"/>
<path fill-rule="evenodd" clip-rule="evenodd" d="M3.8875 60.7359C6.96484 60.0039 10.043 59.2726 13.1203 58.5422C14.4719 58.2219 15.8242 57.9055 17.1758 57.5836C17.8516 57.4226 18.5289 57.2695 19.1992 57.0883C19.7961 56.9273 19.8695 56.7297 19.5625 56.1914C19.1188 55.4133 18.6672 54.6398 18.218 53.864L14.2617 47.0515L10.307 40.2383C8.96562 37.9273 7.62266 35.6164 6.28047 33.3062L2.83359 27.3765C2.33672 26.5219 1.73359 25.6648 1.23438 24.8109C1.14141 24.6555 1.5625 24.4695 0.78125 24.3867V61.4148C0.78125 61.3898 1.13516 61.3687 1.25469 61.3398L3.8875 60.7359V60.7359ZM98.6125 87.2031C97.4062 87.632 96.1992 88.064 94.9938 88.4961L86.7555 91.45C85.2297 91.9976 83.707 92.5515 82.1805 93.0969C79.0695 94.207 75.957 95.3133 72.8453 96.4211C71.0422 97.0633 69.2383 97.857 67.4359 98.5023C66.9422 98.6797 66.4555 99.2187 65.9664 99.2187H86.6617L87.107 98.9633C87.6336 98.9406 88.1516 98.7844 88.6688 98.6898C90.793 98.3015 92.6953 97.3828 94.3805 96.0398C95.675 95.0078 96.7281 93.7461 97.5531 92.307C98.4016 90.8258 98.9055 89.2234 99.1477 87.5406C99.1687 87.3953 99.2141 87.2305 99.0922 87.0805C98.9203 87.0672 98.7687 87.1476 98.6125 87.2031V87.2031ZM96.8352 59.4133C95.9227 58.1648 95.0078 56.9187 94.0969 55.6695C92.8398 53.9453 91.5852 52.2195 90.3297 50.4945C89.8195 49.7945 89.3023 49.1 88.8047 48.3922C88.6547 48.1789 88.4836 48.1219 88.25 48.1851L88.1164 48.2234C85.8055 48.7851 83.4938 49.3453 81.182 49.9055L77.0398 50.9109L68.9367 52.8789C66.2656 53.5281 63.5945 54.1781 60.9227 54.8258L52.593 56.843C49.8609 57.5062 47.1305 58.1719 44.3992 58.8359L36.4758 60.7594C35.0797 61.0984 33.6836 61.4359 32.2891 61.7765C32.0836 61.8265 31.8625 61.839 31.6438 62.0047L31.8305 62.3601C34.3231 66.6685 36.8226 70.973 39.3289 75.2734C40.793 77.7836 42.2609 80.2922 43.7273 82.8015C44.5703 84.243 45.4078 85.6859 46.2578 87.1234C47.2005 88.721 48.1519 90.3135 49.1117 91.9008C49.4 92.375 49.7273 92.8281 50.057 93.275C50.2778 93.5754 50.5555 93.8294 50.8742 94.0226C51.207 94.2234 51.5656 94.2867 51.9437 94.2015C52.1391 94.157 52.3305 94.093 52.5195 94.0273L53.2148 93.7695C55.7437 92.9047 58.2719 92.0398 60.8016 91.1781C62.775 90.5062 64.7508 89.8375 66.7258 89.1695C68.6859 88.5047 70.6477 87.843 72.6086 87.1812L78.4477 85.2094C80.4383 84.5367 82.4281 83.864 84.418 83.1898C86.8602 82.3609 89.3016 81.5289 91.7453 80.7015C94.1008 79.9047 96.4586 79.1125 98.8148 78.3172C98.9594 78.2687 99.1188 78.2484 99.2383 78.0898L99.2531 77.7469C99.2539 72.8601 99.2523 67.9726 99.2578 63.0859C99.2627 62.8395 99.1831 62.5987 99.032 62.4039C98.2914 61.4125 97.5656 60.4109 96.8352 59.4133V59.4133ZM96.4297 13.368C95.8813 12.6734 95.1828 12.4531 94.3266 12.6766C93.9539 12.7742 93.5711 12.8359 93.1914 12.9055C91.9461 13.1336 90.6992 13.3578 89.4539 13.5836C87.6305 13.9148 85.8078 14.2492 83.9844 14.5773C82.5406 14.8367 81.0961 15.0922 79.6516 15.3453L73.8563 16.3594C73.6133 16.4016 73.368 16.4437 73.1336 16.5187C72.7922 16.6281 72.6938 16.8422 72.85 17.1633C72.9773 17.4258 73.1359 17.6765 73.3078 17.9125C74.5062 19.564 75.7102 21.2117 76.9141 22.8601C78.5734 25.1328 80.2336 27.4047 81.8937 29.6758C83.2984 31.5976 84.7047 33.5195 86.1102 35.4406C87.2148 36.95 88.3195 38.4594 89.4258 39.968L89.6438 40.232L99.2305 37.8625L99.2531 37.3656C99.2539 30.7164 99.2523 24.0672 99.2578 17.4172C99.2578 17.1234 99.1867 16.8875 99.0016 16.6547C98.1953 15.6367 97.4039 14.607 96.6062 13.582L96.4297 13.368V13.368ZM99.0086 45.5875C97.5586 45.9359 96.1031 46.2672 94.618 46.6601C94.775 46.939 98.8484 52.4375 99.0852 52.6984L99.2336 52.7805L99.25 52.4453L99.2508 50.1305C99.2516 48.7875 99.2547 47.4445 99.2516 46.1015C99.2516 45.9383 99.2977 45.7625 99.1852 45.5969L99.0086 45.5875V45.5875Z" fill="#FD4F31"/>
</svg>
