<svg width="1080" height="720" viewBox="0 0 1080 720" fill="none" xmlns="http://www.w3.org/2000/svg">
<rect width="1080" height="720" fill="white"/>
<path d="M328.291 324.906V396H311.201L286.055 351.762V396H268.916V324.906H286.055L311.201 369.145V324.906H328.291ZM399.287 359.037V361.918C399.287 367.354 398.522 372.237 396.992 376.566C395.495 380.863 393.363 384.542 390.596 387.602C387.829 390.629 384.557 392.956 380.781 394.584C377.005 396.179 372.839 396.977 368.281 396.977C363.691 396.977 359.492 396.179 355.684 394.584C351.908 392.956 348.62 390.629 345.82 387.602C343.053 384.542 340.905 380.863 339.375 376.566C337.878 372.237 337.129 367.354 337.129 361.918V359.037C337.129 353.601 337.878 348.718 339.375 344.389C340.905 340.059 343.037 336.381 345.771 333.354C348.538 330.294 351.81 327.966 355.586 326.371C359.395 324.743 363.594 323.93 368.184 323.93C372.741 323.93 376.908 324.743 380.684 326.371C384.492 327.966 387.78 330.294 390.547 333.354C393.314 336.381 395.462 340.059 396.992 344.389C398.522 348.718 399.287 353.601 399.287 359.037ZM381.904 361.918V358.939C381.904 355.424 381.595 352.331 380.977 349.662C380.391 346.96 379.512 344.698 378.34 342.875C377.168 341.052 375.719 339.685 373.994 338.773C372.301 337.829 370.365 337.357 368.184 337.357C365.905 337.357 363.919 337.829 362.227 338.773C360.534 339.685 359.118 341.052 357.979 342.875C356.839 344.698 355.977 346.96 355.391 349.662C354.837 352.331 354.561 355.424 354.561 358.939V361.918C354.561 365.401 354.837 368.493 355.391 371.195C355.977 373.865 356.839 376.127 357.979 377.982C359.15 379.838 360.583 381.238 362.275 382.182C364.001 383.126 366.003 383.598 368.281 383.598C370.462 383.598 372.399 383.126 374.092 382.182C375.785 381.238 377.201 379.838 378.34 377.982C379.512 376.127 380.391 373.865 380.977 371.195C381.595 368.493 381.904 365.401 381.904 361.918ZM438.398 324.906V396H421.26V324.906H438.398ZM459.785 324.906V338.139H400.361V324.906H459.785ZM515.986 382.816V396H478.096V382.816H515.986ZM484.199 324.906V396H467.061V324.906H484.199ZM511.104 353.129V365.873H478.096V353.129H511.104ZM516.133 324.906V338.139H478.096V324.906H516.133ZM570.918 353.129V366.312H534.443V353.129H570.918ZM540.156 324.906V396H523.018V324.906H540.156ZM582.441 324.906V396H565.352V324.906H582.441ZM611.543 324.906V396H594.453V324.906H611.543ZM682.979 324.906V396H665.889L640.742 351.762V396H623.604V324.906H640.742L665.889 369.145V324.906H682.979ZM751.973 358.012V387.211C750.768 388.546 748.913 389.978 746.406 391.508C743.932 393.005 740.807 394.291 737.031 395.365C733.255 396.439 728.812 396.977 723.701 396.977C718.981 396.977 714.701 396.228 710.859 394.73C707.018 393.201 703.714 390.971 700.947 388.041C698.213 385.079 696.097 381.465 694.6 377.201C693.135 372.904 692.402 367.989 692.402 362.455V358.5C692.402 352.966 693.151 348.051 694.648 343.754C696.146 339.457 698.245 335.844 700.947 332.914C703.682 329.952 706.888 327.706 710.566 326.176C714.277 324.646 718.346 323.881 722.773 323.881C729.316 323.881 734.639 324.923 738.74 327.006C742.842 329.057 745.951 331.905 748.066 335.551C750.182 339.164 751.468 343.347 751.924 348.1H735.469C735.143 345.756 734.525 343.77 733.613 342.143C732.734 340.482 731.465 339.229 729.805 338.383C728.145 337.504 725.996 337.064 723.359 337.064C721.309 337.064 719.437 337.504 717.744 338.383C716.084 339.262 714.668 340.596 713.496 342.387C712.324 344.145 711.413 346.358 710.762 349.027C710.143 351.697 709.834 354.822 709.834 358.402V362.455C709.834 366.003 710.127 369.112 710.713 371.781C711.331 374.451 712.243 376.68 713.447 378.471C714.684 380.229 716.247 381.563 718.135 382.475C720.055 383.354 722.318 383.793 724.922 383.793C726.745 383.793 728.307 383.646 729.609 383.354C730.911 383.028 731.986 382.637 732.832 382.182C733.711 381.693 734.378 381.238 734.834 380.814V369.779H722.92V358.012H751.973Z" fill="#181818"/>
<path d="M767.874 380.725C767.874 376.084 769.55 372.217 772.901 369.123C776.253 365.965 780.571 364.386 785.856 364.386C791.206 364.386 795.524 365.965 798.812 369.123C802.163 372.217 803.839 376.084 803.839 380.725C803.839 385.365 802.163 389.265 798.812 392.423C795.524 395.517 791.206 397.063 785.856 397.063C780.571 397.063 776.253 395.517 772.901 392.423C769.55 389.265 767.874 385.365 767.874 380.725Z" fill="#0047FF"/>
</svg>
