<svg width="130" height="41" viewBox="0 0 130 41" fill="none" xmlns="http://www.w3.org/2000/svg">
<g clip-path="url(#clip0_416_8)">
<path d="M0 3.33691V40.79H40.7363L0 3.33691Z" fill="white"/>
<path d="M29.8702 22.1218C35.9224 22.1218 40.8287 17.1697 40.8287 11.0609C40.8287 4.95213 35.9224 0 29.8702 0C23.8179 0 18.9116 4.95213 18.9116 11.0609C18.9116 17.1697 23.8179 22.1218 29.8702 22.1218Z" fill="white"/>
<path d="M65.0577 40.79H46.4929V3.29028H65.0577C75.3227 3.29028 83.6226 11.691 83.6226 22.0285C83.6226 32.3893 75.3227 40.79 65.0577 40.79Z" fill="white"/>
<path d="M89.2869 3.57031V41H130L89.2869 3.57031Z" fill="white"/>
<path d="M89.2869 40.72V3.29028H130L89.2869 40.72Z" fill="white"/>
</g>
<defs>
<clipPath id="clip0_416_8">
<rect width="130" height="41" fill="white"/>
</clipPath>
</defs>
</svg>
